<svg width="24" height="24" viewBox="0 0 24 24" fill="none" xmlns="http://www.w3.org/2000/svg">
<path d="M19.73 4.86999C18.2673 4.18817 16.7204 3.70393 15.13 3.42999C14.92 3.82999 14.73 4.22999 14.55 4.63999C12.86 4.38999 11.15 4.38999 9.45003 4.63999C9.27003 4.22999 9.08003 3.81999 8.86003 3.43999C7.26003 3.70999 5.72003 4.18999 4.26003 4.86999C1.65972 8.61377 0.488795 13.1662 0.960027 17.7C2.65746 18.9737 4.56212 19.9446 6.59003 20.57C7.05003 19.95 7.45003 19.29 7.79003 18.59C7.14003 18.34 6.50003 18.04 5.89003 17.67C6.06003 17.55 6.21003 17.43 6.36003 17.3C9.94003 19 14.06 19 17.64 17.3L18.1 17.67C17.5 18.03 16.85 18.34 16.2 18.59C16.55 19.29 16.95 19.94 17.4 20.57C19.43 19.94 21.34 18.97 23.04 17.7C23.51 12.83 22.26 8.60999 19.74 4.86999H19.73ZM8.30003 15.12C7.20003 15.12 6.30003 14.1 6.30003 12.85C6.30003 11.61 7.18003 10.59 8.30003 10.59C9.42003 10.59 10.32 11.61 10.3 12.85C10.3 14.1 9.41003 15.12 8.30003 15.12ZM15.7 15.12C14.6 15.12 13.7 14.1 13.7 12.85C13.7 11.61 14.58 10.59 15.7 10.59C16.82 10.59 17.72 11.61 17.7 12.85C17.7 14.1 16.82 15.12 15.7 15.12Z" fill="currentColor"/>
</svg>
