<svg width="51" height="51" viewBox="0 0 51 51" fill="none" xmlns="http://www.w3.org/2000/svg">
<path d="M19.6123 39.3291L16.7949 40.8156C18.9866 41.8702 21.4336 42.46 24.0147 42.46C27.767 42.46 31.236 41.2145 34.0488 39.1041C31.8118 40.2643 29.2832 40.9182 26.6054 40.9182C24.1059 40.9182 21.736 40.3487 19.6123 39.3291Z" fill="white"/>
<path d="M26.6054 7C24.9772 7 23.4039 7.24186 21.9182 7.69198C15.0746 9.76566 10.08 16.264 10.08 23.9588C10.08 27.8434 11.3527 31.4231 13.4936 34.2822L11.0952 43.7997L16.7726 40.8045C16.7798 40.8082 16.7871 40.8112 16.7944 40.8149L19.6118 39.3284C21.7355 40.348 24.1054 40.9174 26.6049 40.9174C29.2827 40.9174 31.8112 40.2635 34.0483 39.1033C39.436 36.309 43.1303 30.5768 43.1303 23.9583C43.1307 14.5928 35.7322 7 26.6054 7ZM26.6054 38.1145C24.5356 38.1145 22.5788 37.644 20.8232 36.8014L19.5524 36.1915L15.3408 38.4132L16.5355 33.6714L15.7343 32.6015C13.9475 30.2152 12.8802 27.2227 12.8802 23.9588C12.8802 16.0738 19.0908 9.80286 26.6045 9.80286C34.1181 9.80286 40.3287 16.0738 40.3287 23.9588C40.3287 31.8437 34.119 38.1145 26.6054 38.1145Z" fill="white"/>
<path fill-rule="evenodd" clip-rule="evenodd" d="M21.9189 7.69198C23.4047 7.24186 24.978 7 26.6061 7C35.733 7 43.1314 14.5928 43.1314 23.9588C43.1314 30.5773 39.4372 36.3095 34.0495 39.1037C31.8124 40.264 29.2839 40.9179 26.6061 40.9179C24.1065 40.9179 21.7366 40.3484 19.6129 39.3288L16.7956 40.8153C16.7919 40.8135 16.7883 40.8119 16.7847 40.8102C16.781 40.8085 16.7774 40.8068 16.7738 40.805L11.0964 43.8001L8.2336 45.3102L10.633 35.7882C8.3574 32.8207 7 29.0781 7 25.0101C7 16.1011 13.5107 8.75151 21.9189 7.69198ZM20.824 36.8014C22.5796 37.644 24.5364 38.1145 26.6062 38.1145C34.1198 38.1145 40.3295 31.8437 40.3295 23.9588C40.3295 16.0738 34.1189 9.80285 26.6053 9.80285C19.0916 9.80285 12.881 16.0738 12.881 23.9588C12.881 27.2226 13.9483 30.2152 15.7351 32.6015L16.5363 33.6713L15.3416 38.4132L19.5531 36.1915L20.824 36.8014Z" fill="white"/>
<path fill-rule="evenodd" clip-rule="evenodd" d="M22.4041 15.8301H25.4849V22.9782H22.4041V15.8301ZM30.3866 15.8301H33.4674V22.838H30.3866V15.8301ZM26.0653 35.3621L23.4156 36.6394L17.8525 25.0786L20.5021 23.8013L21.3876 25.6408H30.5271V28.5839H22.804L26.0653 35.3621Z" fill="white"/>
</svg>
